<svg width="250" height="74" viewBox="0 0 250 74" fill="none" xmlns="http://www.w3.org/2000/svg">
<g clip-path="url(#clip0_1_14)">
<path d="M197 22.2292C196.583 22.2292 196.167 22.625 196.583 23.0208L200.75 27.7708C201.167 28.1667 201.583 28.1667 202 27.7708L206.167 23.0208C206.167 22.625 205.75 22.2292 205.333 22.2292H197Z" fill="#585CC8"/>
<path d="M218.992 6H30.0078C25.737 6 22 8.77083 22 11.9375V38.0625C22 41.2292 25.737 44 30.0078 44H218.992C223.263 44 227 41.2292 227 38.0625V11.9375C227 8.77083 223.263 6 218.992 6ZM174.148 40.4375H30.0078C28.4062 40.4375 27.3385 39.6458 27.3385 38.4583V11.9375C27.3385 10.75 28.4062 9.95833 30.0078 9.95833H174.682V40.4375H174.148ZM221.661 38.0625C221.661 39.25 220.594 40.0417 218.992 40.0417H180.021V9.95833H218.992C220.594 9.95833 221.661 10.75 221.661 11.9375V38.0625Z" fill="#585CC8"/>
<path d="M6.7396 72.9404L3.41838 67.3227H2.64991V72.9404H0V60.1771H4.6285C7.51692 60.1771 8.73582 61.8819 8.73582 63.993C8.73582 65.7065 7.76421 66.8195 6.03291 67.1905L9.87522 72.9408H6.73951L6.7396 72.9404ZM2.65001 62.3759V65.4232H4.21343C5.62671 65.4232 6.20089 64.8226 6.20089 63.9039C6.20089 62.9941 5.62674 62.3758 4.21343 62.3758H2.65001V62.3759ZM19.2209 62.5089H14.4864V65.406H18.6821V67.7114H14.4864V70.5999H19.2209V72.9406H11.8188V60.1772H19.2209V62.5091V62.5089ZM30.492 72.9404L29.5645 70.3082H24.2029L23.2754 72.9404H20.5638L25.2629 60.1771H28.5046L33.2037 72.9404H30.4921H30.492ZM24.9798 68.0911H28.7868L26.8877 62.6765L24.9798 68.0911ZM40.7732 73.1171C37.0191 73.1171 34.2456 70.5643 34.2456 66.5541C34.2456 62.544 37.0191 60.0001 40.7732 60.0001C43.6174 60.0001 45.8963 61.4575 46.8061 63.8777L44.3328 64.7787C43.7675 63.2948 42.4161 62.4379 40.7732 62.4379C38.5738 62.4379 36.8866 63.9749 36.8866 66.5541C36.8866 69.1334 38.5737 70.6791 40.7732 70.6791C42.4161 70.6791 43.7675 69.8135 44.3328 68.3295L46.8061 69.2304C45.8963 71.6507 43.6174 73.117 40.7732 73.117V73.1171ZM56.3813 60.1771V62.5089H53.3515V72.9405H50.7281V62.5089H47.6808V60.1771H56.3813V60.1771ZM58.024 69.3013V67.1725H64.3573V69.3013H58.024ZM71.5385 73.1171C68.8003 73.1171 66.6627 71.8009 66.274 69.4072L69.0122 68.7801C69.1889 70.211 70.24 70.9529 71.6445 70.9529C72.7221 70.9529 73.5789 70.476 73.5701 69.3983C73.5612 68.197 72.1479 67.8172 70.5934 67.3402C68.7208 66.7572 66.7157 66.0682 66.7157 63.7187C66.7157 61.3425 68.6589 60 71.2205 60C73.4642 60 75.7254 60.9098 76.2377 63.3565L73.6762 63.9925C73.4377 62.7205 72.5809 62.164 71.3796 62.164C70.3108 62.164 69.401 62.6057 69.401 63.6568C69.401 64.6373 70.6552 64.9641 72.1039 65.3969C74.0295 65.9799 76.3083 66.7218 76.3083 69.2657C76.3083 71.9774 74.0382 73.1169 71.5386 73.1169L71.5385 73.1171ZM86.1573 62.5089H81.4228V65.406H85.6184V67.7114H81.4228V70.5999H86.1573V72.9406H78.7552V60.1772H86.1573V62.5091V62.5089ZM91.5364 70.5997H95.5377V72.9404H88.8865V60.1771H91.5364V70.5996V70.5997ZM104.963 62.5089H100.228V65.406H104.424V67.7114H100.228V70.5999H104.963V72.9406H97.5606V60.1772H104.963V62.5091V62.5089ZM113.345 73.1171C109.591 73.1171 106.817 70.5643 106.817 66.5541C106.817 62.544 109.591 60.0001 113.345 60.0001C116.189 60.0001 118.468 61.4575 119.378 63.8777L116.905 64.7787C116.339 63.2948 114.988 62.4379 113.345 62.4379C111.146 62.4379 109.458 63.9749 109.458 66.5541C109.458 69.1334 111.146 70.6791 113.345 70.6791C114.988 70.6791 116.339 69.8135 116.905 68.3295L119.378 69.2304C118.468 71.6507 116.189 73.117 113.345 73.117V73.1171ZM128.953 60.1771V62.5089H125.923V72.9405H123.3V62.5089H120.253V60.1771H128.953V60.1771ZM130.596 69.3013V67.1725H136.929V69.3013H130.596ZM139.87 72.9404V60.1771H144.49C148.562 60.1771 150.576 62.7386 150.576 66.5545C150.576 70.3792 148.562 72.9407 144.49 72.9407H139.87V72.9404ZM142.52 70.5997H144.358C146.707 70.5997 147.785 69.1334 147.785 66.5541C147.785 63.9749 146.707 62.5086 144.358 62.5086H142.52V70.5996V70.5997ZM161.6 72.9404L160.673 70.3082H155.311L154.383 72.9404H151.672L156.371 60.1771H159.613L164.312 72.9404H161.6H161.6ZM156.088 68.0911H159.895L157.996 62.6765L156.088 68.0911ZM173.63 60.1771V62.5089H170.601V72.9405H167.977V62.5089H164.93V60.1771H173.63V60.1771ZM183.037 62.5089H178.303V65.406H182.499V67.7114H178.303V70.5999H183.037V72.9406H175.635V60.1772H183.037V62.5091V62.5089ZM191.075 60.1771C193.575 60.1771 195.13 62.032 195.13 64.302C195.13 66.6251 193.575 68.3652 191.075 68.3652H188.416V72.9407H185.767V60.1773H191.075L191.075 60.1771ZM190.634 66.1478C191.959 66.1478 192.577 65.4147 192.577 64.2664C192.577 63.1623 191.959 62.3938 190.634 62.3938H188.416V66.1478H190.634V66.1478ZM197.356 72.9404V60.1771H200.005V72.9404H197.356ZM208.953 73.1171C205.199 73.1171 202.426 70.5643 202.426 66.5541C202.426 62.544 205.199 60.0001 208.953 60.0001C211.797 60.0001 214.076 61.4575 214.986 63.8777L212.513 64.7787C211.948 63.2948 210.596 62.4379 208.953 62.4379C206.754 62.4379 205.067 63.9749 205.067 66.5541C205.067 69.1334 206.754 70.6791 208.953 70.6791C210.596 70.6791 211.948 69.8135 212.513 68.3295L214.986 69.2304C214.076 71.6507 211.797 73.117 208.953 73.117V73.1171ZM224.711 72.9404L220.745 67.517H219.809V72.9404H217.159V60.1771H219.809V65.1942H220.71L224.711 60.1771H227.944L222.998 66.2806L228.094 72.9407H224.711L224.711 72.9404ZM237.396 62.5089H232.661V65.406H236.857V67.7114H232.661V70.5999H237.396V72.9406H229.994V60.1772H237.396V62.5091V62.5089ZM246.864 72.9404L243.543 67.3227H242.775V72.9404H240.125V60.1771H244.753C247.642 60.1771 248.861 61.8819 248.861 63.993C248.861 65.7065 247.889 66.8195 246.158 67.1905L250 72.9408H246.864L246.864 72.9404ZM242.775 62.3759V65.4232H244.338C245.752 65.4232 246.326 64.8226 246.326 63.9039C246.326 62.9941 245.752 62.3758 244.338 62.3758H242.775V62.3759Z" fill="#424A4F"/>
</g>
<defs>
<clipPath id="clip0_1_14">
<rect width="250" height="73.1171" fill="white"/>
</clipPath>
</defs>
</svg>
